<svg width="17" height="17" viewBox="0 0 17 17" fill="none" xmlns="http://www.w3.org/2000/svg">
<path d="M0.786395 15.862C1.27307 16.3487 2.06188 16.3487 2.5483 15.862L8.42144 9.9889L14.2946 15.862C14.7813 16.3487 15.5701 16.3487 16.0565 15.862C16.5432 15.3754 16.5432 14.5866 16.0565 14.1001L10.1833 8.227L16.0565 2.35386C16.5432 1.86718 16.5432 1.07837 16.0565 0.59195C15.5698 0.105272 14.781 0.105562 14.2946 0.59195L8.42144 6.46509L2.5483 0.59195C2.06162 0.105562 1.27281 0.105562 0.786395 0.59195C0.299717 1.07863 0.299717 1.86744 0.786395 2.35386L6.65954 8.227L0.786395 14.1001C0.299717 14.5868 0.299717 15.3756 0.786395 15.862Z" fill="#9F9F9F"/>
</svg>
