<svg width="198" height="44" viewBox="0 0 198 44" fill="none" xmlns="http://www.w3.org/2000/svg">
<path d="M68.1526 19.1847H65.9367C65.8515 18.7112 65.6929 18.2945 65.4608 17.9347C65.2288 17.5748 64.9448 17.2694 64.6086 17.0185C64.2724 16.7675 63.896 16.5781 63.4793 16.4503C63.0674 16.3224 62.6294 16.2585 62.1654 16.2585C61.3273 16.2585 60.5769 16.4692 59.914 16.8906C59.2558 17.312 58.735 17.9299 58.3515 18.7443C57.9727 19.5587 57.7833 20.553 57.7833 21.7273C57.7833 22.911 57.9727 23.91 58.3515 24.7244C58.735 25.5388 59.2582 26.1544 59.9211 26.571C60.584 26.9877 61.3297 27.196 62.1583 27.196C62.6176 27.196 63.0532 27.1345 63.4651 27.0114C63.8818 26.8835 64.2582 26.6965 64.5944 26.4503C64.9305 26.2041 65.2146 25.9034 65.4466 25.5483C65.6834 25.1884 65.8467 24.7765 65.9367 24.3125L68.1526 24.3196C68.0342 25.0346 67.8046 25.6927 67.4637 26.294C67.1275 26.8906 66.6943 27.4067 66.164 27.8423C65.6384 28.2732 65.0371 28.607 64.36 28.8438C63.6829 29.0805 62.9443 29.1989 62.1441 29.1989C60.8846 29.1989 59.7625 28.9006 58.7776 28.304C57.7928 27.7027 57.0162 26.8433 56.4481 25.7259C55.8846 24.6084 55.6029 23.2756 55.6029 21.7273C55.6029 20.1742 55.887 18.8414 56.4552 17.7287C57.0233 16.6113 57.7999 15.7543 58.7847 15.1577C59.7696 14.5563 60.8894 14.2557 62.1441 14.2557C62.9159 14.2557 63.6356 14.367 64.3032 14.5895C64.9755 14.8073 65.5792 15.1293 66.1143 15.5554C66.6493 15.9768 67.092 16.4929 67.4424 17.1037C67.7928 17.7098 68.0295 18.4034 68.1526 19.1847ZM75.2034 29.2202C74.1807 29.2202 73.2881 28.9858 72.5258 28.517C71.7635 28.0483 71.1717 27.3925 70.7503 26.5497C70.3289 25.7069 70.1182 24.7221 70.1182 23.5952C70.1182 22.4635 70.3289 21.474 70.7503 20.6264C71.1717 19.7789 71.7635 19.1207 72.5258 18.652C73.2881 18.1832 74.1807 17.9489 75.2034 17.9489C76.2261 17.9489 77.1186 18.1832 77.8809 18.652C78.6433 19.1207 79.2351 19.7789 79.6565 20.6264C80.0779 21.474 80.2886 22.4635 80.2886 23.5952C80.2886 24.7221 80.0779 25.7069 79.6565 26.5497C79.2351 27.3925 78.6433 28.0483 77.8809 28.517C77.1186 28.9858 76.2261 29.2202 75.2034 29.2202ZM75.2105 27.4375C75.8734 27.4375 76.4226 27.2623 76.8582 26.9119C77.2938 26.5616 77.6158 26.0952 77.8241 25.5128C78.0372 24.9304 78.1437 24.2888 78.1437 23.5881C78.1437 22.892 78.0372 22.2528 77.8241 21.6705C77.6158 21.0833 77.2938 20.6122 76.8582 20.2571C76.4226 19.902 75.8734 19.7244 75.2105 19.7244C74.5429 19.7244 73.9889 19.902 73.5486 20.2571C73.113 20.6122 72.7886 21.0833 72.5756 21.6705C72.3672 22.2528 72.2631 22.892 72.2631 23.5881C72.2631 24.2888 72.3672 24.9304 72.5756 25.5128C72.7886 26.0952 73.113 26.5616 73.5486 26.9119C73.9889 27.2623 74.5429 27.4375 75.2105 27.4375ZM82.659 29V18.0909H84.6974V19.8665H84.8323C85.0596 19.2652 85.4313 18.7964 85.9474 18.4602C86.4635 18.1193 87.0814 17.9489 87.801 17.9489C88.5302 17.9489 89.141 18.1193 89.6334 18.4602C90.1306 18.8011 90.4975 19.2699 90.7343 19.8665H90.8479C91.1083 19.2841 91.5226 18.8201 92.0908 18.4744C92.659 18.1241 93.3361 17.9489 94.1221 17.9489C95.1117 17.9489 95.9189 18.259 96.5439 18.8793C97.1737 19.4995 97.4885 20.4347 97.4885 21.6847V29H95.365V21.8835C95.365 21.1449 95.1637 20.6098 94.7613 20.2784C94.3588 19.947 93.8782 19.7812 93.3195 19.7812C92.6282 19.7812 92.0908 19.9943 91.7073 20.4205C91.3238 20.8419 91.132 21.384 91.132 22.0469V29H89.0155V21.7486C89.0155 21.1567 88.8309 20.6809 88.4616 20.321C88.0922 19.9612 87.6117 19.7812 87.0198 19.7812C86.6173 19.7812 86.2457 19.8878 85.9047 20.1009C85.5686 20.3092 85.2963 20.6004 85.088 20.9744C84.8844 21.3485 84.7826 21.7817 84.7826 22.2741V29H82.659ZM100.335 33.0909V18.0909H102.409V19.8594H102.586C102.709 19.6321 102.887 19.3693 103.119 19.071C103.351 18.7727 103.673 18.5123 104.085 18.2898C104.497 18.0625 105.041 17.9489 105.718 17.9489C106.599 17.9489 107.385 18.1714 108.076 18.6165C108.768 19.0616 109.31 19.7031 109.703 20.5412C110.1 21.3793 110.299 22.3878 110.299 23.5668C110.299 24.7457 110.103 25.7566 109.71 26.5994C109.317 27.4375 108.777 28.0838 108.09 28.5384C107.404 28.9882 106.62 29.2131 105.74 29.2131C105.077 29.2131 104.535 29.1018 104.113 28.8793C103.697 28.6567 103.37 28.3963 103.133 28.098C102.896 27.7997 102.714 27.5346 102.586 27.3026H102.458V33.0909H100.335ZM102.416 23.5455C102.416 24.3125 102.527 24.9848 102.75 25.5625C102.972 26.1402 103.294 26.5923 103.715 26.919C104.137 27.241 104.653 27.402 105.264 27.402C105.898 27.402 106.429 27.2339 106.855 26.8977C107.281 26.5568 107.603 26.0952 107.821 25.5128C108.043 24.9304 108.154 24.2746 108.154 23.5455C108.154 22.8258 108.045 22.1795 107.828 21.6065C107.615 21.0336 107.293 20.5814 106.862 20.25C106.436 19.9186 105.903 19.7528 105.264 19.7528C104.648 19.7528 104.127 19.9115 103.701 20.2287C103.28 20.5459 102.96 20.9886 102.742 21.5568C102.525 22.125 102.416 22.7879 102.416 23.5455ZM112.679 29V18.0909H114.731V19.8239H114.845C115.044 19.2367 115.394 18.7751 115.896 18.4389C116.402 18.098 116.975 17.9276 117.615 17.9276C117.747 17.9276 117.903 17.9323 118.083 17.9418C118.268 17.9512 118.412 17.9631 118.517 17.9773V20.0085C118.431 19.9848 118.28 19.9588 118.062 19.9304C117.844 19.8973 117.626 19.8807 117.409 19.8807C116.907 19.8807 116.459 19.9872 116.066 20.2003C115.678 20.4086 115.37 20.6998 115.143 21.0739C114.916 21.4432 114.802 21.8646 114.802 22.3381V29H112.679ZM124.665 29.2202C123.591 29.2202 122.665 28.9905 121.888 28.5312C121.117 28.0672 120.52 27.4162 120.099 26.5781C119.682 25.7353 119.474 24.7481 119.474 23.6165C119.474 22.4991 119.682 21.5142 120.099 20.6619C120.52 19.8097 121.107 19.1444 121.86 18.6662C122.618 18.188 123.503 17.9489 124.516 17.9489C125.132 17.9489 125.728 18.0507 126.306 18.2543C126.884 18.4579 127.402 18.7775 127.861 19.2131C128.321 19.6487 128.683 20.2145 128.948 20.9105C129.213 21.6018 129.346 22.4422 129.346 23.4318V24.1847H120.674V22.5938H127.265C127.265 22.035 127.151 21.5402 126.924 21.1094C126.697 20.6738 126.377 20.3305 125.965 20.0795C125.558 19.8286 125.08 19.7031 124.53 19.7031C123.934 19.7031 123.413 19.8499 122.968 20.1435C122.528 20.4323 122.187 20.8111 121.945 21.2798C121.708 21.7438 121.59 22.2481 121.59 22.7926V24.0355C121.59 24.7647 121.718 25.3849 121.974 25.8963C122.234 26.4077 122.596 26.7983 123.06 27.0682C123.524 27.3333 124.066 27.4659 124.687 27.4659C125.089 27.4659 125.456 27.4091 125.788 27.2955C126.119 27.1771 126.405 27.0019 126.647 26.7699C126.888 26.5379 127.073 26.2514 127.201 25.9105L129.211 26.2727C129.05 26.8646 128.761 27.383 128.344 27.8281C127.932 28.2685 127.414 28.6117 126.789 28.858C126.169 29.0994 125.461 29.2202 124.665 29.2202ZM139.877 20.7543L137.952 21.0952C137.871 20.849 137.744 20.6146 137.568 20.392C137.398 20.1695 137.166 19.9872 136.872 19.8452C136.579 19.7031 136.212 19.6321 135.772 19.6321C135.17 19.6321 134.668 19.767 134.266 20.0369C133.863 20.3021 133.662 20.6454 133.662 21.0668C133.662 21.4313 133.797 21.7249 134.067 21.9474C134.337 22.17 134.773 22.3523 135.374 22.4943L137.107 22.892C138.111 23.1241 138.859 23.4815 139.351 23.9645C139.844 24.4474 140.09 25.0748 140.09 25.8466C140.09 26.5 139.9 27.0824 139.522 27.5938C139.148 28.1004 138.624 28.4981 137.952 28.7869C137.284 29.0758 136.51 29.2202 135.63 29.2202C134.408 29.2202 133.411 28.9598 132.639 28.4389C131.868 27.9134 131.394 27.1676 131.219 26.2017L133.272 25.8892C133.399 26.4242 133.662 26.8291 134.06 27.1037C134.458 27.3736 134.976 27.5085 135.615 27.5085C136.311 27.5085 136.868 27.3641 137.284 27.0753C137.701 26.7817 137.909 26.4242 137.909 26.0028C137.909 25.6619 137.782 25.3755 137.526 25.1435C137.275 24.9115 136.889 24.7363 136.368 24.6179L134.522 24.2131C133.504 23.9811 132.751 23.6117 132.263 23.1051C131.78 22.5985 131.539 21.9569 131.539 21.1804C131.539 20.5365 131.719 19.973 132.078 19.4901C132.438 19.0071 132.935 18.6307 133.57 18.3608C134.204 18.0862 134.931 17.9489 135.75 17.9489C136.929 17.9489 137.857 18.2045 138.534 18.7159C139.211 19.2225 139.659 19.902 139.877 20.7543ZM150.599 20.7543L148.675 21.0952C148.594 20.849 148.466 20.6146 148.291 20.392C148.121 20.1695 147.889 19.9872 147.595 19.8452C147.302 19.7031 146.935 19.6321 146.494 19.6321C145.893 19.6321 145.391 19.767 144.989 20.0369C144.586 20.3021 144.385 20.6454 144.385 21.0668C144.385 21.4313 144.52 21.7249 144.79 21.9474C145.06 22.17 145.495 22.3523 146.097 22.4943L147.829 22.892C148.833 23.1241 149.581 23.4815 150.074 23.9645C150.566 24.4474 150.812 25.0748 150.812 25.8466C150.812 26.5 150.623 27.0824 150.244 27.5938C149.87 28.1004 149.347 28.4981 148.675 28.7869C148.007 29.0758 147.233 29.2202 146.352 29.2202C145.131 29.2202 144.134 28.9598 143.362 28.4389C142.59 27.9134 142.117 27.1676 141.942 26.2017L143.994 25.8892C144.122 26.4242 144.385 26.8291 144.783 27.1037C145.18 27.3736 145.699 27.5085 146.338 27.5085C147.034 27.5085 147.59 27.3641 148.007 27.0753C148.424 26.7817 148.632 26.4242 148.632 26.0028C148.632 25.6619 148.504 25.3755 148.248 25.1435C147.998 24.9115 147.612 24.7363 147.091 24.6179L145.244 24.2131C144.226 23.9811 143.473 23.6117 142.986 23.1051C142.503 22.5985 142.261 21.9569 142.261 21.1804C142.261 20.5365 142.441 19.973 142.801 19.4901C143.161 19.0071 143.658 18.6307 144.293 18.3608C144.927 18.0862 145.654 17.9489 146.473 17.9489C147.652 17.9489 148.58 18.2045 149.257 18.7159C149.934 19.2225 150.382 19.902 150.599 20.7543ZM153.147 29V18.0909H155.271V29H153.147ZM154.22 16.4077C153.85 16.4077 153.533 16.2846 153.268 16.0384C153.008 15.7874 152.877 15.4891 152.877 15.1435C152.877 14.7931 153.008 14.4948 153.268 14.2486C153.533 13.9976 153.85 13.8722 154.22 13.8722C154.589 13.8722 154.904 13.9976 155.164 14.2486C155.429 14.4948 155.562 14.7931 155.562 15.1435C155.562 15.4891 155.429 15.7874 155.164 16.0384C154.904 16.2846 154.589 16.4077 154.22 16.4077ZM163.32 18.0909V19.7955H157.155V18.0909H163.32ZM158.845 29V16.8267C158.845 16.1449 158.994 15.5791 159.293 15.1293C159.591 14.6747 159.986 14.3362 160.479 14.1136C160.971 13.8864 161.506 13.7727 162.084 13.7727C162.51 13.7727 162.874 13.8082 163.177 13.8793C163.48 13.9455 163.705 14.0071 163.852 14.0639L163.355 15.7827C163.256 15.7543 163.128 15.7211 162.972 15.6832C162.815 15.6406 162.626 15.6193 162.403 15.6193C161.887 15.6193 161.518 15.7472 161.295 16.0028C161.078 16.2585 160.969 16.6278 160.969 17.1108V29H158.845ZM166.853 33.0909C166.536 33.0909 166.247 33.0649 165.986 33.0128C165.726 32.9654 165.532 32.9134 165.404 32.8565L165.915 31.1165C166.304 31.2206 166.649 31.2656 166.952 31.2514C167.255 31.2372 167.523 31.1236 167.755 30.9105C167.992 30.6974 168.2 30.3494 168.38 29.8665L168.643 29.142L164.651 18.0909H166.924L169.687 26.5568H169.8L172.563 18.0909H174.843L170.347 30.456C170.139 31.0241 169.874 31.5047 169.552 31.8977C169.23 32.2955 168.846 32.5938 168.401 32.7926C167.956 32.9915 167.44 33.0909 166.853 33.0909ZM177.554 29.1349C177.166 29.1349 176.832 28.9976 176.553 28.723C176.273 28.4437 176.134 28.1075 176.134 27.7145C176.134 27.3262 176.273 26.9948 176.553 26.7202C176.832 26.4408 177.166 26.3011 177.554 26.3011C177.943 26.3011 178.276 26.4408 178.556 26.7202C178.835 26.9948 178.975 27.3262 178.975 27.7145C178.975 27.9749 178.908 28.214 178.776 28.4318C178.648 28.6449 178.478 28.8153 178.264 28.9432C178.051 29.071 177.815 29.1349 177.554 29.1349ZM181.819 29V18.0909H183.943V29H181.819ZM182.892 16.4077C182.522 16.4077 182.205 16.2846 181.94 16.0384C181.679 15.7874 181.549 15.4891 181.549 15.1435C181.549 14.7931 181.679 14.4948 181.94 14.2486C182.205 13.9976 182.522 13.8722 182.892 13.8722C183.261 13.8722 183.576 13.9976 183.836 14.2486C184.101 14.4948 184.234 14.7931 184.234 15.1435C184.234 15.4891 184.101 15.7874 183.836 16.0384C183.576 16.2846 183.261 16.4077 182.892 16.4077ZM191.395 29.2202C190.372 29.2202 189.48 28.9858 188.717 28.517C187.955 28.0483 187.363 27.3925 186.942 26.5497C186.52 25.7069 186.31 24.7221 186.31 23.5952C186.31 22.4635 186.52 21.474 186.942 20.6264C187.363 19.7789 187.955 19.1207 188.717 18.652C189.48 18.1832 190.372 17.9489 191.395 17.9489C192.418 17.9489 193.31 18.1832 194.072 18.652C194.835 19.1207 195.427 19.7789 195.848 20.6264C196.269 21.474 196.48 22.4635 196.48 23.5952C196.48 24.7221 196.269 25.7069 195.848 26.5497C195.427 27.3925 194.835 28.0483 194.072 28.517C193.31 28.9858 192.418 29.2202 191.395 29.2202ZM191.402 27.4375C192.065 27.4375 192.614 27.2623 193.05 26.9119C193.485 26.5616 193.807 26.0952 194.016 25.5128C194.229 24.9304 194.335 24.2888 194.335 23.5881C194.335 22.892 194.229 22.2528 194.016 21.6705C193.807 21.0833 193.485 20.6122 193.05 20.2571C192.614 19.902 192.065 19.7244 191.402 19.7244C190.734 19.7244 190.18 19.902 189.74 20.2571C189.304 20.6122 188.98 21.0833 188.767 21.6705C188.559 22.2528 188.454 22.892 188.454 23.5881C188.454 24.2888 188.559 24.9304 188.767 25.5128C188.98 26.0952 189.304 26.5616 189.74 26.9119C190.18 27.2623 190.734 27.4375 191.402 27.4375Z" fill="#2C2C2C"/>
<path d="M22 44C34.1503 44 44 34.1503 44 22C44 9.84974 34.1503 0 22 0C9.84974 0 0 9.84974 0 22C0 34.1503 9.84974 44 22 44Z" fill="#0D99FF"/>
<path d="M18.0902 17.1242C18.6041 16.4987 19.2073 16.0034 19.8925 15.6422C20.5777 15.281 21.315 15.0985 22.1044 15.0985C23.3146 15.0985 24.3759 15.4858 25.2845 16.2529C26.1931 17.0237 26.8187 18.0589 27.1613 19.3585H29.511C29.7083 18.2451 29.9913 17.1838 30.3376 16.1784C30.6542 15.2586 30.4829 14.2383 29.8945 13.4638C29.5705 13.0393 29.2205 12.6408 28.8407 12.2759C27.9433 11.4083 26.9192 10.7343 25.7649 10.2539C24.6142 9.77354 23.3817 9.53149 22.0709 9.53149C20.6186 9.53149 19.2483 9.85546 17.9673 10.5071C16.6863 11.1588 15.5692 12.0488 14.6196 13.1808C14.4037 13.4377 14.1989 13.7096 14.0015 13.9888C13.4913 14.7224 13.3647 15.6608 13.6403 16.5098C14.709 19.7793 15.1298 23.652 13.8414 27.7817C13.5658 28.6679 13.7148 29.6435 14.2771 30.3846C14.3888 30.5298 14.5005 30.6713 14.6196 30.8128C15.5692 31.9448 16.6826 32.8348 17.9673 33.4865C19.2483 34.1381 20.6186 34.4621 22.0709 34.4621C23.3817 34.4621 24.6142 34.2201 25.7649 33.7397C26.9155 33.2593 27.9395 32.5853 28.8407 31.7177C29.1051 31.4607 29.3583 31.1926 29.5966 30.9059C30.2446 30.1351 30.4494 29.0775 30.1291 28.1205C29.7344 26.9364 29.4812 25.7708 29.3471 24.6351H27.1576C26.815 25.9347 26.1894 26.9699 25.2808 27.7407C24.3722 28.5115 23.3109 28.8951 22.1007 28.8951C21.315 28.8951 20.5739 28.7126 19.8888 28.3514C19.2036 27.9902 18.6003 27.4949 18.0865 26.8693C17.5726 26.2437 17.1667 25.5102 16.8762 24.6649C16.5821 23.8233 16.4368 22.9184 16.4368 21.954C16.4368 21.0156 16.5821 20.1293 16.8762 19.2989C17.1704 18.4797 17.5763 17.7498 18.0902 17.1242Z" fill="white"/>
<path d="M35.8192 32.9162C35.6107 32.9162 35.4059 32.8231 35.2681 32.6406C35.0931 32.406 34.9255 32.1752 34.7654 31.9406C34.5494 31.6278 34.6276 31.1995 34.9404 30.9836C35.2532 30.7676 35.6815 30.8458 35.8974 31.1586C36.0464 31.3746 36.2028 31.5943 36.3666 31.814C36.5938 32.1193 36.5342 32.5475 36.2288 32.7784C36.1097 32.8715 35.9645 32.9162 35.8192 32.9162ZM33.8531 29.6579C33.5924 29.6579 33.3467 29.509 33.2275 29.2595C32.8924 28.5333 32.6056 27.7811 32.3822 27.0252C32.2742 26.6603 32.479 26.2767 32.8439 26.1687C33.2089 26.0608 33.5924 26.2656 33.7004 26.6305C33.9052 27.3231 34.1696 28.012 34.4787 28.6786C34.6388 29.0249 34.4898 29.4308 34.1435 29.5909C34.0467 29.6356 33.9499 29.6579 33.8531 29.6579ZM32.4678 24.5973C32.1178 24.5973 31.8199 24.3329 31.7827 23.9754C31.7305 23.4504 31.7045 22.9142 31.7045 22.3779C31.7045 22.1098 31.7119 21.8455 31.7231 21.5848C31.7417 21.205 32.0694 20.9182 32.4418 20.9294C32.8216 20.948 33.1158 21.2683 33.0972 21.6481C33.086 21.8864 33.0785 22.1322 33.0785 22.3742C33.0785 22.8658 33.1009 23.3573 33.1493 23.8377C33.1865 24.2175 32.911 24.5526 32.5311 24.5899C32.5125 24.5936 32.4902 24.5973 32.4678 24.5973ZM32.8104 19.358C32.762 19.358 32.7099 19.3543 32.6615 19.3431C32.2891 19.2612 32.0582 18.8925 32.1401 18.5239C32.3077 17.7642 32.5274 16.9971 32.7918 16.2412C32.9184 15.8837 33.3094 15.6938 33.6669 15.8204C34.0244 15.947 34.2143 16.338 34.0877 16.6955C33.8419 17.3993 33.6371 18.1142 33.4807 18.8218C33.41 19.1383 33.1269 19.358 32.8104 19.358ZM34.6276 14.4203C34.5196 14.4203 34.4116 14.3942 34.3111 14.3421C33.976 14.1671 33.8456 13.75 34.0206 13.4149C34.6909 12.1339 35.2495 11.3891 35.2718 11.3593C35.5027 11.0577 35.9309 10.9981 36.2363 11.2253C36.5379 11.4524 36.6012 11.8844 36.3741 12.1897C36.3703 12.1972 35.8565 12.8861 35.242 14.0553C35.1117 14.2862 34.8734 14.4203 34.6276 14.4203Z" fill="white"/>
<path d="M7.76429 32.7792C7.45895 32.5521 7.39936 32.1201 7.62651 31.8148C7.79036 31.5951 7.94676 31.3791 8.09571 31.1594C8.31169 30.8466 8.73992 30.7684 9.05272 30.9844C9.36551 31.2003 9.44371 31.6286 9.22773 31.9414C9.06761 32.176 8.90004 32.4068 8.72502 32.6414C8.59097 32.8202 8.38244 32.917 8.17391 32.917C8.03613 32.917 7.8909 32.8723 7.76429 32.7792ZM9.85705 29.5954C9.51074 29.4353 9.36179 29.0257 9.52191 28.6831C9.83098 28.0165 10.0916 27.3276 10.3002 26.635C10.4082 26.2701 10.7917 26.0653 11.1566 26.1733C11.5216 26.2813 11.7264 26.6648 11.6184 27.0297C11.395 27.7857 11.1082 28.5341 10.7731 29.264C10.6577 29.5135 10.4082 29.6624 10.1475 29.6624C10.0507 29.6587 9.95014 29.6364 9.85705 29.5954ZM11.462 24.5944C11.0859 24.5571 10.8066 24.222 10.8438 23.8422C10.8923 23.3618 10.9146 22.8703 10.9146 22.3787C10.9146 22.133 10.9071 21.8909 10.896 21.6526C10.8774 21.2728 11.1715 20.9525 11.5514 20.9339C11.9237 20.9228 12.2514 21.2095 12.27 21.5893C12.2812 21.85 12.2887 22.1144 12.2887 22.3825C12.2887 22.915 12.2626 23.4549 12.2105 23.98C12.177 24.3337 11.8753 24.6018 11.5253 24.6018C11.5067 24.5981 11.4843 24.5944 11.462 24.5944ZM10.5162 18.8188C10.3598 18.1113 10.1549 17.3964 9.90918 16.6926C9.78257 16.3351 9.97249 15.9404 10.33 15.8175C10.6874 15.6946 11.0822 15.8808 11.2051 16.2383C11.4694 16.9905 11.6891 17.7613 11.8567 18.5209C11.9386 18.8933 11.704 19.2582 11.3354 19.3402C11.287 19.3513 11.2348 19.355 11.1864 19.355C10.8736 19.3588 10.5869 19.1391 10.5162 18.8188ZM8.76226 14.0524C8.14784 12.8794 7.63396 12.1905 7.63024 12.1868C7.40309 11.8815 7.46267 11.4532 7.76802 11.2223C8.06964 10.9952 8.5016 11.0548 8.73247 11.3564C8.75481 11.3862 9.31338 12.1347 9.98366 13.4119C10.1587 13.7471 10.0283 14.1641 9.6932 14.3391C9.59266 14.3913 9.48095 14.4173 9.37668 14.4173C9.12347 14.4211 8.88515 14.287 8.76226 14.0524Z" fill="white"/>
</svg>
