<svg width="24" height="18" viewBox="0 0 24 18" fill="none" xmlns="http://www.w3.org/2000/svg">
<path d="M2.8764 11.7473C4.29249 11.7473 5.44051 12.8952 5.44051 14.3114C5.44051 15.7275 4.29254 16.8755 2.8764 16.8755C1.4603 16.8755 0.312286 15.7275 0.312286 14.3114C0.312286 12.8953 1.46026 11.7473 2.8764 11.7473" fill="#D9D9D9"/>
<path d="M2.87651 11.994C3.83464 12.0014 4.72877 12.6048 5.05391 13.5162C5.38397 14.4399 5.09825 15.4719 4.34701 16.1025C3.6007 16.7281 2.49475 16.7946 1.66963 16.2897C0.854317 15.7946 0.410991 14.8069 0.600653 13.8684C0.81987 12.7871 1.77556 12.0014 2.87656 11.994C3.1943 11.9915 3.1943 11.4989 2.87656 11.5014C1.69917 11.5088 0.644972 12.2501 0.233624 13.3536C-0.170328 14.4448 0.179437 15.733 1.08091 16.4695C1.9972 17.2183 3.31249 17.334 4.33224 16.7133C5.3446 16.0975 5.85936 14.8931 5.62785 13.7354C5.36676 12.4423 4.18446 11.5088 2.87656 11.4989C2.55881 11.4989 2.55881 11.9916 2.87656 11.994L2.87651 11.994Z" fill="#D9D9D9"/>
<path d="M11.6574 11.7473C13.0735 11.7473 14.2215 12.8952 14.2215 14.3114C14.2215 15.7275 13.0736 16.8755 11.6574 16.8755C10.2413 16.8755 9.09332 15.7275 9.09332 14.3114C9.09332 12.8953 10.2413 11.7473 11.6574 11.7473Z" fill="#D9D9D9"/>
<path d="M11.6575 11.994C12.6156 12.0014 13.5097 12.6048 13.8349 13.5162C14.1649 14.4399 13.8792 15.4719 13.128 16.1025C12.3817 16.7281 11.2757 16.7946 10.4506 16.2897C9.63529 15.7946 9.19197 14.8069 9.38163 13.8684C9.60085 12.7871 10.5565 12.0014 11.6575 11.994C11.9753 11.9915 11.9753 11.4989 11.6575 11.5014C10.4801 11.5088 9.42595 12.2501 9.0146 13.3536C8.61065 14.4448 8.96041 15.733 9.86189 16.4695C10.7782 17.2183 12.0935 17.334 13.1132 16.7133C14.1256 16.0975 14.6403 14.8931 14.4088 13.7354C14.1477 12.4423 12.9654 11.5088 11.6575 11.4989C11.3398 11.4989 11.3398 11.9916 11.6575 11.994L11.6575 11.994Z" fill="#D9D9D9"/>
<path d="M20.4384 11.7473C21.8545 11.7473 23.0026 12.8952 23.0026 14.3114C23.0026 15.7275 21.8546 16.8755 20.4384 16.8755C19.0223 16.8755 17.8743 15.7275 17.8743 14.3114C17.8743 12.8953 19.0223 11.7473 20.4384 11.7473Z" fill="#D9D9D9"/>
<path d="M20.4384 11.994C21.3965 12.0014 22.2906 12.6048 22.6158 13.5162C22.9458 14.4399 22.6601 15.4719 21.9089 16.1025C21.1626 16.7281 20.0566 16.7946 19.2315 16.2897C18.4162 15.7946 17.9728 14.8069 18.1625 13.8684C18.3817 12.7871 19.3374 12.0014 20.4384 11.994C20.7562 11.9915 20.7562 11.4989 20.4384 11.5014C19.261 11.5088 18.2068 12.2501 17.7955 13.3536C17.3915 14.4448 17.7413 15.733 18.6428 16.4695C19.5591 17.2183 20.8744 17.334 21.8941 16.7133C22.9065 16.0975 23.4212 14.8931 23.1897 13.7354C22.9286 12.4423 21.7463 11.5088 20.4384 11.4989C20.1207 11.4989 20.1207 11.9916 20.4384 11.994L20.4384 11.994Z" fill="#D9D9D9"/>
<path d="M2.87628 1.12568C4.29237 1.12568 5.44039 2.27366 5.44039 3.6898C5.44039 5.10589 4.29241 6.25391 2.87628 6.25391C1.46018 6.25391 0.312164 5.10593 0.312164 3.6898C0.312164 2.2737 1.46014 1.12568 2.87628 1.12568" fill="#D9D9D9"/>
<path d="M2.87639 1.37242C3.83452 1.3798 4.72865 1.98324 5.05379 2.89462C5.38384 3.8183 5.09812 4.85034 4.34689 5.48089C3.60058 6.10654 2.49463 6.17302 1.6695 5.66809C0.854195 5.17301 0.410869 4.18529 0.600531 3.24684C0.819748 2.16553 1.77544 1.37981 2.87643 1.37243C3.19417 1.36996 3.19417 0.877349 2.87643 0.879781C1.69905 0.887171 0.64485 1.62857 0.233502 2.73204C-0.17045 3.82322 0.179315 5.1114 1.08079 5.84789C1.99708 6.59667 3.31237 6.71242 4.33212 6.09174C5.34447 5.47595 5.85923 4.2715 5.62773 3.11385C5.36664 1.82071 4.18434 0.887173 2.87643 0.877354C2.55869 0.877354 2.55869 1.37 2.87643 1.37243L2.87639 1.37242Z" fill="#D9D9D9"/>
<path d="M11.6574 1.12568C13.0735 1.12568 14.2215 2.27366 14.2215 3.6898C14.2215 5.10589 13.0736 6.25391 11.6574 6.25391C10.2413 6.25391 9.09332 5.10593 9.09332 3.6898C9.09332 2.2737 10.2413 1.12568 11.6574 1.12568Z" fill="#D9D9D9"/>
<path d="M11.6575 1.37242C12.6156 1.3798 13.5097 1.98324 13.8349 2.89462C14.1649 3.8183 13.8792 4.85034 13.128 5.48089C12.3817 6.10654 11.2757 6.17302 10.4506 5.66809C9.63529 5.17301 9.19197 4.18529 9.38163 3.24684C9.60085 2.16553 10.5565 1.37981 11.6575 1.37243C11.9753 1.36996 11.9753 0.877349 11.6575 0.879781C10.4801 0.887171 9.42595 1.62857 9.0146 2.73204C8.61065 3.82322 8.96041 5.1114 9.86189 5.84789C10.7782 6.59667 12.0935 6.71242 13.1132 6.09174C14.1256 5.47595 14.6403 4.2715 14.4088 3.11385C14.1477 1.82071 12.9654 0.887173 11.6575 0.877354C11.3398 0.877354 11.3398 1.37 11.6575 1.37243L11.6575 1.37242Z" fill="#D9D9D9"/>
<path d="M20.4384 1.12568C21.8545 1.12568 23.0026 2.27366 23.0026 3.6898C23.0026 5.10589 21.8546 6.25391 20.4384 6.25391C19.0223 6.25391 17.8743 5.10593 17.8743 3.6898C17.8743 2.2737 19.0223 1.12568 20.4384 1.12568Z" fill="#D9D9D9"/>
<path d="M20.4384 1.37242C21.3965 1.3798 22.2906 1.98324 22.6158 2.89462C22.9458 3.8183 22.6601 4.85034 21.9089 5.48089C21.1626 6.10654 20.0566 6.17302 19.2315 5.66809C18.4162 5.17301 17.9728 4.18529 18.1625 3.24684C18.3817 2.16553 19.3374 1.37981 20.4384 1.37243C20.7562 1.36996 20.7562 0.877349 20.4384 0.879781C19.261 0.887171 18.2068 1.62857 17.7955 2.73204C17.3915 3.82322 17.7413 5.1114 18.6428 5.84789C19.5591 6.59667 20.8744 6.71242 21.8941 6.09174C22.9065 5.47595 23.4212 4.2715 23.1897 3.11385C22.9286 1.82071 21.7463 0.887173 20.4384 0.877354C20.1207 0.877354 20.1207 1.37 20.4384 1.37243L20.4384 1.37242Z" fill="#D9D9D9"/>
</svg>
