<svg width="14" height="19" viewBox="0 0 14 19" fill="none" xmlns="http://www.w3.org/2000/svg">
<path d="M6.81286 4.66611C9.77265 4.66611 12.1806 7.45019 12.1806 10.8725C12.1806 14.2948 9.77274 17.079 6.81286 17.079C3.85307 17.079 1.44511 14.2949 1.44511 10.8725C1.44511 7.45045 3.8531 4.66611 6.81286 4.66611M6.81286 2.99524C3.05033 2.99524 0 6.52207 0 10.8726C0 15.223 3.05024 18.7499 6.81286 18.7499C10.5754 18.7499 13.6257 15.2231 13.6257 10.8726C13.6258 6.52218 10.5756 2.99524 6.81286 2.99524V2.99524Z" fill="white"/>
<path d="M7.57895 1.92098H5.98699C5.58794 1.92098 5.2644 1.54701 5.2644 1.08549C5.2644 0.624083 5.58784 0.25 5.98699 0.25H7.57895C7.97787 0.25 8.30153 0.623972 8.30153 1.08549C8.30141 1.5469 7.97787 1.92098 7.57895 1.92098Z" fill="white"/>
<path d="M9.35035 10.2754H7.35797L6.57593 7.10902C6.46629 6.66535 6.06588 6.40776 5.68277 6.53514C5.29905 6.6619 5.07679 7.12418 5.18644 7.56785L6.11822 11.3404C6.20879 11.7076 6.4982 11.9467 6.81255 11.9467C6.8498 11.9467 9.35035 11.9464 9.35035 11.9464C9.74928 11.9464 10.0729 11.5723 10.0729 11.1109C10.0729 10.6496 9.74937 10.2754 9.35035 10.2754V10.2754Z" fill="white"/>
</svg>
