<svg width="235" height="147" viewBox="0 0 235 147" fill="none" xmlns="http://www.w3.org/2000/svg">
<path d="M0 129.157C0 127.631 0.297035 126.186 0.891105 124.83C1.48517 123.473 2.28797 122.293 3.2995 121.273C4.31102 120.254 5.49916 119.467 6.87194 118.881C8.2367 118.303 9.69779 118.006 11.2472 118.006C12.6441 118.006 13.9606 118.223 15.1889 118.648C16.4172 119.082 17.509 119.684 18.4643 120.454C19.4197 121.233 20.2225 122.156 20.8727 123.232C21.515 124.308 21.9565 125.496 22.1973 126.78H16.6741C16.3048 125.616 15.6385 124.693 14.6751 124.003C13.7037 123.312 12.5718 122.967 11.2873 122.967C10.4444 122.967 9.66568 123.128 8.9271 123.449C8.19656 123.77 7.55432 124.211 7.00842 124.773C6.46252 125.335 6.02901 125.986 5.71591 126.724C5.40282 127.471 5.25029 128.258 5.25029 129.101C5.25029 129.959 5.40282 130.77 5.71591 131.525C6.02901 132.28 6.46252 132.938 7.00842 133.492C7.55432 134.054 8.19656 134.495 8.9271 134.816C9.65765 135.138 10.4444 135.298 11.2873 135.298C12.5798 135.298 13.7118 134.953 14.6751 134.262C15.6465 133.572 16.3128 132.649 16.6741 131.485H22.1973C21.9565 132.777 21.523 133.957 20.8727 135.041C20.2225 136.117 19.4277 137.04 18.4643 137.819C17.509 138.598 16.4172 139.2 15.1889 139.625C13.9606 140.059 12.6521 140.275 11.2472 140.275C9.69779 140.275 8.2367 139.986 6.87194 139.4C5.50719 138.822 4.31102 138.02 3.2995 137.008C2.28797 135.997 1.48517 134.808 0.891105 133.46C0.297035 132.127 0 130.682 0 129.157Z" fill="#0D99FF"/>
<path d="M24.0597 131.445C24.0597 130.176 24.2845 128.996 24.734 127.912C25.1836 126.828 25.8018 125.889 26.5885 125.102C27.3752 124.316 28.3065 123.706 29.3983 123.264C30.4821 122.822 31.6782 122.606 32.9707 122.606C34.2632 122.606 35.4514 122.831 36.5352 123.264C37.6189 123.706 38.5662 124.324 39.3771 125.118C40.1799 125.913 40.8141 126.853 41.2636 127.928C41.7132 129.004 41.938 130.176 41.938 131.445C41.938 132.713 41.7132 133.885 41.2636 134.961C40.8141 136.037 40.1799 136.968 39.3771 137.755C38.5662 138.541 37.6189 139.151 36.5352 139.593C35.4514 140.034 34.2552 140.251 32.9707 140.251C31.6863 140.251 30.4901 140.034 29.3983 139.593C28.3145 139.151 27.3752 138.541 26.5885 137.755C25.8018 136.968 25.1836 136.037 24.734 134.961C24.2845 133.893 24.0597 132.721 24.0597 131.445ZM29.029 131.477C29.029 132.014 29.1253 132.536 29.318 133.026C29.5107 133.524 29.7836 133.949 30.1449 134.319C30.4981 134.688 30.9236 134.977 31.4213 135.194C31.9191 135.41 32.457 135.515 33.035 135.515C33.613 135.515 34.1509 135.41 34.6325 135.194C35.1142 134.977 35.5236 134.688 35.8608 134.319C36.198 133.949 36.4629 133.524 36.6556 133.026C36.8482 132.528 36.9446 132.014 36.9446 131.477C36.9446 130.915 36.8482 130.385 36.6716 129.879C36.495 129.373 36.2221 128.932 35.8769 128.554C35.5317 128.177 35.1222 127.88 34.6325 127.663C34.1509 127.447 33.613 127.342 33.035 127.342C32.4329 127.342 31.887 127.455 31.4053 127.663C30.9236 127.88 30.4981 128.177 30.1449 128.554C29.7917 128.932 29.5187 129.373 29.318 129.879C29.1253 130.385 29.029 130.923 29.029 131.477Z" fill="#0D99FF"/>
<path d="M44.6593 122.927H49.4681V125.255C50.0461 124.436 50.7606 123.794 51.5955 123.32C52.4384 122.847 53.3857 122.606 54.4374 122.606C55.6014 122.606 56.5969 122.895 57.4398 123.481C58.2828 124.059 58.917 124.846 59.3425 125.841C59.9686 124.854 60.7474 124.067 61.6866 123.481C62.6259 122.903 63.7177 122.606 64.962 122.606C65.805 122.606 66.5596 122.766 67.242 123.071C67.9163 123.384 68.5024 123.81 68.9841 124.364C69.4657 124.91 69.843 125.568 70.0999 126.331C70.3568 127.093 70.4853 127.944 70.4853 128.868V139.978H65.6765V130.545C65.6765 129.574 65.4357 128.803 64.9701 128.233C64.4964 127.663 63.8863 127.374 63.1317 127.374C62.6821 127.374 62.2566 127.487 61.8713 127.712C61.4859 127.936 61.1568 128.241 60.8838 128.619C60.6109 128.996 60.4021 129.429 60.2336 129.911C60.073 130.393 59.9847 130.907 59.9606 131.445V139.97H55.1519V130.537C55.1519 129.566 54.911 128.795 54.4454 128.225C53.9717 127.655 53.3696 127.366 52.6391 127.366C52.1655 127.366 51.74 127.479 51.3627 127.703C50.9853 127.928 50.6562 128.233 50.3752 128.611C50.0942 128.988 49.8775 129.421 49.733 129.903C49.5885 130.385 49.4921 130.899 49.4761 131.436V139.962H44.6673V122.927H44.6593Z" fill="#0D99FF"/>
<path d="M74.1143 146.272V122.927H78.923V124.958C79.4207 124.227 80.063 123.649 80.8417 123.232C81.6284 122.814 82.6078 122.606 83.796 122.606C85.0002 122.606 86.108 122.831 87.1035 123.264C88.107 123.706 88.966 124.324 89.6885 125.118C90.411 125.913 90.973 126.853 91.3664 127.928C91.7678 129.004 91.9604 130.192 91.9604 131.477C91.9604 132.745 91.7597 133.917 91.3664 135.001C90.965 136.077 90.411 137 89.7046 137.779C88.9981 138.557 88.1391 139.159 87.1356 139.601C86.1321 140.042 85.0323 140.259 83.8281 140.259C82.6239 140.259 81.6284 140.059 80.8417 139.649C80.055 139.24 79.4127 138.678 78.923 137.971V146.272H74.1143ZM78.923 130.867V132.063C78.9872 132.536 79.1237 132.986 79.3405 133.419C79.5572 133.853 79.8382 134.214 80.1995 134.519C80.5527 134.824 80.9621 135.065 81.4277 135.242C81.8934 135.418 82.3991 135.515 82.9611 135.515C83.5873 135.515 84.1492 135.41 84.6389 135.194C85.1367 134.977 85.5541 134.688 85.8993 134.319C86.2445 133.949 86.5094 133.524 86.7101 133.026C86.9028 132.528 86.9992 132.014 86.9992 131.477C86.9992 130.915 86.9028 130.385 86.7262 129.879C86.5416 129.373 86.2766 128.932 85.9154 128.554C85.5621 128.177 85.1367 127.88 84.6389 127.663C84.1412 127.447 83.5873 127.342 82.9611 127.342C81.8452 127.342 80.9139 127.679 80.1834 128.362C79.4529 129.044 79.0274 129.879 78.923 130.867Z" fill="#0D99FF"/>
<path d="M94.682 122.927H99.4907V125.994C100.205 124.854 101.096 124.003 102.188 123.441C103.272 122.879 104.444 122.598 105.688 122.598V127.672C104.91 127.647 104.163 127.736 103.44 127.928C102.718 128.121 102.076 128.426 101.522 128.836C100.96 129.245 100.502 129.743 100.133 130.337C99.7637 130.931 99.555 131.621 99.4827 132.416V139.97H94.674V122.927H94.682Z" fill="#0D99FF"/>
<path d="M112.118 132.512C112.287 133.524 112.728 134.35 113.443 134.985C114.157 135.619 115.065 135.94 116.189 135.94C116.879 135.94 117.513 135.771 118.091 135.426C118.669 135.081 119.111 134.664 119.416 134.166H124.618C124.401 135.089 124.04 135.932 123.534 136.687C123.028 137.441 122.402 138.083 121.664 138.605C120.925 139.135 120.082 139.545 119.143 139.834C118.204 140.123 117.192 140.267 116.092 140.267C114.8 140.267 113.612 140.05 112.52 139.609C111.436 139.167 110.497 138.557 109.71 137.77C108.923 136.984 108.305 136.052 107.856 134.977C107.406 133.901 107.181 132.729 107.181 131.46C107.181 130.192 107.398 129.012 107.839 127.928C108.281 126.844 108.891 125.905 109.678 125.118C110.465 124.332 111.396 123.721 112.472 123.28C113.547 122.838 114.735 122.622 116.028 122.622C117.232 122.622 118.348 122.798 119.368 123.151C120.387 123.505 121.286 124.01 122.065 124.669C122.844 125.327 123.47 126.114 123.952 127.029C124.433 127.944 124.746 128.948 124.875 130.047C124.915 130.545 124.947 130.914 124.955 131.163C124.963 131.412 124.971 131.597 124.971 131.725C124.971 131.982 124.963 132.255 124.939 132.528H112.118V132.512ZM119.777 129.863C119.625 129.004 119.215 128.297 118.549 127.751C117.882 127.206 117.064 126.925 116.092 126.925C115.081 126.925 114.254 127.198 113.604 127.735C112.953 128.273 112.52 128.988 112.279 129.863H119.777Z" fill="#0D99FF"/>
<path d="M127.363 127.993C127.363 126.275 127.982 124.942 129.218 124.003C130.454 123.064 132.204 122.598 134.468 122.598C136.812 122.598 138.595 123.096 139.815 124.083C141.027 125.071 141.661 126.443 141.701 128.185H136.828C136.788 126.917 136.01 126.283 134.5 126.283C132.927 126.283 132.14 126.788 132.14 127.8C132.14 128.338 132.389 128.739 132.879 129.012C133.376 129.285 133.987 129.494 134.717 129.654C135.448 129.815 136.242 129.976 137.109 130.12C137.968 130.273 138.763 130.522 139.502 130.867C140.232 131.212 140.85 131.694 141.34 132.32C141.838 132.946 142.087 133.805 142.087 134.905C142.087 136.542 141.469 137.835 140.232 138.798C138.996 139.754 137.126 140.235 134.629 140.235C132.044 140.235 130.125 139.738 128.865 138.734C127.604 137.731 126.978 136.374 126.978 134.648H131.819C131.923 135.94 132.863 136.583 134.629 136.583C136.347 136.583 137.214 136.077 137.214 135.065C137.214 134.527 136.973 134.142 136.491 133.901C136.01 133.66 135.399 133.476 134.669 133.339C133.938 133.203 133.144 133.05 132.293 132.906C131.442 132.753 130.647 132.504 129.916 132.159C129.186 131.814 128.576 131.316 128.094 130.674C127.604 130.024 127.363 129.133 127.363 127.993Z" fill="#0D99FF"/>
<path d="M144.736 127.993C144.736 126.275 145.354 124.942 146.591 124.003C147.827 123.064 149.577 122.598 151.841 122.598C154.185 122.598 155.967 123.096 157.188 124.083C158.4 125.071 159.034 126.443 159.074 128.185H154.201C154.161 126.917 153.382 126.283 151.873 126.283C150.3 126.283 149.513 126.788 149.513 127.8C149.513 128.338 149.762 128.739 150.252 129.012C150.749 129.285 151.359 129.494 152.09 129.654C152.82 129.815 153.615 129.976 154.482 130.12C155.341 130.273 156.136 130.522 156.875 130.867C157.605 131.212 158.223 131.694 158.713 132.32C159.211 132.946 159.46 133.805 159.46 134.905C159.46 136.542 158.841 137.835 157.605 138.798C156.369 139.754 154.498 140.235 152.002 140.235C149.417 140.235 147.498 139.738 146.238 138.734C144.977 137.731 144.351 136.374 144.351 134.648H149.192C149.296 135.94 150.235 136.583 152.002 136.583C153.72 136.583 154.587 136.077 154.587 135.065C154.587 134.527 154.346 134.142 153.864 133.901C153.382 133.66 152.772 133.476 152.042 133.339C151.311 133.203 150.516 133.05 149.665 132.906C148.814 132.753 148.02 132.504 147.289 132.159C146.559 131.814 145.949 131.316 145.467 130.674C144.977 130.024 144.736 129.133 144.736 127.993Z" fill="#0D99FF"/>
<path d="M162.045 118.464C162.045 117.733 162.31 117.107 162.839 116.593C163.369 116.079 164.028 115.814 164.822 115.814C165.601 115.814 166.251 116.071 166.773 116.593C167.303 117.107 167.568 117.733 167.568 118.464C167.568 119.218 167.303 119.853 166.773 120.366C166.243 120.88 165.593 121.145 164.822 121.145C164.028 121.145 163.361 120.888 162.839 120.366C162.31 119.853 162.045 119.218 162.045 118.464ZM162.398 122.927H167.207V139.979H162.398V122.927Z" fill="#0D99FF"/>
<path d="M182.195 116.048V120.246H178.936C177.683 120.246 177.065 121.001 177.065 122.51V122.928H181.81V126.805H177.065V139.979H172.256V126.805H169.607V122.928H172.256V122.35C172.256 120.262 172.738 118.689 173.693 117.637C174.649 116.585 176.078 116.056 177.972 116.056H182.195V116.048Z" fill="#0D99FF"/>
<path d="M186.618 146.273L189.01 139.778L182.524 122.919H187.63L191.314 133.283L195.128 122.919H200.201L191.258 146.265H186.618V146.273Z" fill="#0D99FF"/>
<path d="M200.603 137.715C200.603 137.024 200.852 136.43 201.349 135.94C201.847 135.443 202.457 135.194 203.188 135.194C203.878 135.194 204.472 135.443 204.962 135.94C205.46 136.438 205.709 137.024 205.709 137.715C205.709 138.445 205.46 139.063 204.962 139.553C204.464 140.051 203.878 140.3 203.188 140.3C202.457 140.3 201.839 140.051 201.349 139.553C200.852 139.063 200.603 138.445 200.603 137.715Z" fill="#0D99FF"/>
<path d="M208.511 118.464C208.511 117.733 208.776 117.107 209.306 116.593C209.835 116.079 210.494 115.814 211.288 115.814C212.067 115.814 212.717 116.071 213.239 116.593C213.769 117.107 214.034 117.733 214.034 118.464C214.034 119.218 213.769 119.853 213.239 120.366C212.709 120.88 212.059 121.145 211.288 121.145C210.494 121.145 209.827 120.888 209.306 120.366C208.776 119.853 208.511 119.218 208.511 118.464ZM208.872 122.927H213.681V139.979H208.872V122.927Z" fill="#0D99FF"/>
<path d="M216.394 131.445C216.394 130.176 216.618 128.996 217.068 127.912C217.518 126.828 218.136 125.889 218.923 125.102C219.709 124.316 220.64 123.706 221.732 123.264C222.816 122.822 224.012 122.606 225.305 122.606C226.597 122.606 227.785 122.831 228.869 123.264C229.953 123.706 230.9 124.324 231.711 125.118C232.514 125.913 233.148 126.853 233.598 127.928C234.047 129.004 234.272 130.176 234.272 131.445C234.272 132.713 234.047 133.885 233.598 134.961C233.148 136.037 232.514 136.968 231.711 137.755C230.9 138.541 229.953 139.151 228.869 139.593C227.785 140.034 226.589 140.251 225.305 140.251C224.012 140.251 222.824 140.034 221.732 139.593C220.649 139.151 219.709 138.541 218.923 137.755C218.136 136.968 217.518 136.037 217.068 134.961C216.618 133.893 216.394 132.721 216.394 131.445ZM221.363 131.477C221.363 132.014 221.459 132.536 221.652 133.026C221.845 133.524 222.118 133.949 222.479 134.319C222.832 134.688 223.258 134.977 223.755 135.194C224.253 135.41 224.791 135.515 225.369 135.515C225.947 135.515 226.485 135.41 226.967 135.194C227.448 134.977 227.858 134.688 228.195 134.319C228.532 133.949 228.797 133.524 228.99 133.026C229.182 132.528 229.279 132.014 229.279 131.477C229.279 130.915 229.182 130.385 229.006 129.879C228.829 129.373 228.556 128.932 228.211 128.554C227.866 128.177 227.456 127.88 226.967 127.663C226.485 127.447 225.947 127.342 225.369 127.342C224.767 127.342 224.221 127.455 223.739 127.663C223.258 127.88 222.832 128.177 222.479 128.554C222.126 128.932 221.853 129.373 221.652 129.879C221.451 130.385 221.363 130.923 221.363 131.477Z" fill="#0D99FF"/>
<path d="M117.145 94.8587C143.339 94.8587 164.574 73.6239 164.574 47.4295C164.574 21.235 143.339 0.000244141 117.145 0.000244141C90.9501 0.000244141 69.7153 21.235 69.7153 47.4295C69.7153 73.6239 90.9501 94.8587 117.145 94.8587Z" fill="#0D99FF"/>
<path d="M108.715 36.9205C109.823 35.5718 111.123 34.5041 112.6 33.7254C114.077 32.9467 115.667 32.5533 117.369 32.5533C119.978 32.5533 122.266 33.3882 124.225 35.042C126.184 36.7038 127.532 38.9356 128.271 41.7373H133.337C133.762 39.337 134.372 37.049 135.119 34.8814C135.801 32.8985 135.432 30.6989 134.163 29.029C133.465 28.1139 132.71 27.2549 131.892 26.4681C129.957 24.5976 127.749 23.1445 125.26 22.1089C122.78 21.0733 120.123 20.5515 117.297 20.5515C114.166 20.5515 111.211 21.2499 108.45 22.6548C105.688 24.0597 103.28 25.9784 101.233 28.4189C100.767 28.9729 100.326 29.5589 99.9001 30.161C98.8003 31.7425 98.5273 33.7656 99.1214 35.5959C101.425 42.6445 102.333 50.9936 99.5549 59.8966C98.9608 61.8073 99.2819 63.9106 100.494 65.5081C100.735 65.8212 100.976 66.1263 101.233 66.4314C103.28 68.8719 105.68 70.7906 108.45 72.1954C111.211 73.6003 114.166 74.2988 117.297 74.2988C120.123 74.2988 122.78 73.777 125.26 72.7413C127.741 71.7057 129.949 70.2527 131.892 68.3822C132.462 67.8282 133.007 67.2502 133.521 66.6321C134.918 64.9703 135.36 62.6903 134.669 60.6271C133.818 58.0742 133.272 55.5615 132.983 53.113H128.263C127.524 55.9147 126.176 58.1465 124.217 59.8083C122.258 61.4701 119.97 62.297 117.361 62.297C115.667 62.297 114.069 61.9036 112.592 61.1249C111.115 60.3462 109.815 59.2784 108.707 57.9297C107.599 56.581 106.724 54.9995 106.098 53.1772C105.463 51.3629 105.15 49.4121 105.15 47.3328C105.15 45.3098 105.463 43.3991 106.098 41.6089C106.732 39.8427 107.607 38.2692 108.715 36.9205Z" fill="white"/>
<path d="M146.936 70.9671C146.487 70.9671 146.045 70.7664 145.748 70.3731C145.371 69.8673 145.009 69.3696 144.664 68.8638C144.199 68.1895 144.367 67.2663 145.041 66.8006C145.716 66.335 146.639 66.5036 147.105 67.1779C147.426 67.6436 147.763 68.1172 148.116 68.5909C148.606 69.2492 148.477 70.1724 147.819 70.6701C147.562 70.8708 147.249 70.9671 146.936 70.9671ZM142.697 63.9427C142.135 63.9427 141.606 63.6216 141.349 63.0837C140.626 61.5182 140.008 59.8966 139.526 58.2669C139.293 57.4802 139.735 56.6533 140.522 56.4205C141.308 56.1877 142.135 56.6292 142.368 57.4159C142.81 58.9091 143.38 60.3943 144.046 61.8313C144.391 62.5779 144.07 63.453 143.324 63.7982C143.115 63.8945 142.906 63.9427 142.697 63.9427ZM139.711 53.0327C138.956 53.0327 138.314 52.4627 138.234 51.692C138.121 50.56 138.065 49.404 138.065 48.248C138.065 47.67 138.081 47.1 138.105 46.538C138.145 45.7192 138.852 45.101 139.655 45.1251C140.474 45.1653 141.108 45.8557 141.068 46.6745C141.044 47.1883 141.028 47.7181 141.028 48.24C141.028 49.2997 141.076 50.3593 141.18 51.395C141.26 52.2138 140.666 52.9363 139.847 53.0166C139.807 53.0246 139.759 53.0327 139.711 53.0327ZM140.449 41.7373C140.345 41.7373 140.233 41.7293 140.128 41.7052C139.326 41.5286 138.828 40.7338 139.004 39.939C139.366 38.3013 139.839 36.6476 140.409 35.0179C140.682 34.2472 141.525 33.8378 142.296 34.1107C143.067 34.3837 143.476 35.2266 143.203 35.9973C142.673 37.5146 142.232 39.056 141.895 40.5813C141.742 41.2637 141.132 41.7373 140.449 41.7373ZM144.367 31.0922C144.134 31.0922 143.902 31.036 143.685 30.9236C142.962 30.5463 142.681 29.6472 143.059 28.9247C144.504 26.1631 145.708 24.5575 145.756 24.4932C146.254 23.843 147.177 23.7145 147.835 24.2042C148.485 24.6939 148.622 25.6252 148.132 26.2835C148.124 26.2995 147.016 27.7847 145.692 30.3055C145.411 30.8032 144.897 31.0922 144.367 31.0922Z" fill="white"/>
<path d="M86.4535 70.6703C85.7952 70.1806 85.6667 69.2494 86.1564 68.5911C86.5097 68.1174 86.8468 67.6518 87.168 67.1782C87.6336 66.5038 88.5568 66.3352 89.2312 66.8008C89.9055 67.2665 90.0741 68.1897 89.6085 68.864C89.2633 69.3698 88.902 69.8675 88.5247 70.3733C88.2357 70.7586 87.7861 70.9674 87.3365 70.9674C87.0395 70.9674 86.7264 70.871 86.4535 70.6703ZM90.9652 63.8064C90.2186 63.4612 89.8975 62.5781 90.2427 61.8396C90.909 60.4026 91.471 58.9174 91.9205 57.4242C92.1533 56.6374 92.9802 56.1959 93.767 56.4287C94.5537 56.6615 94.9952 57.4884 94.7624 58.2751C94.2807 59.9048 93.6626 61.5184 92.9401 63.0919C92.6912 63.6298 92.1533 63.9509 91.5914 63.9509C91.3826 63.9429 91.1659 63.8947 90.9652 63.8064ZM94.4252 53.0249C93.6144 52.9446 93.0123 52.2221 93.0926 51.4032C93.197 50.3676 93.2451 49.3079 93.2451 48.2482C93.2451 47.7184 93.2291 47.1965 93.205 46.6828C93.1649 45.8639 93.7991 45.1735 94.6179 45.1334C95.4207 45.1093 96.1272 45.7274 96.1673 46.5463C96.1914 47.1082 96.2075 47.6782 96.2075 48.2562C96.2075 49.4042 96.1513 50.5683 96.0389 51.7002C95.9666 52.4629 95.3164 53.0409 94.5617 53.0409C94.5216 53.0329 94.4734 53.0249 94.4252 53.0249ZM92.3861 40.5735C92.049 39.0482 91.6074 37.5068 91.0776 35.9895C90.8046 35.2188 91.2141 34.3679 91.9847 34.1029C92.7554 33.838 93.6064 34.2394 93.8713 35.0101C94.4413 36.6317 94.915 38.2935 95.2762 39.9312C95.4528 40.734 94.9471 41.5208 94.1523 41.6974C94.0479 41.7215 93.9355 41.7295 93.8312 41.7295C93.1568 41.7375 92.5387 41.2639 92.3861 40.5735ZM88.605 30.2977C87.2804 27.7689 86.1725 26.2837 86.1645 26.2757C85.6748 25.6174 85.8032 24.6941 86.4615 24.1964C87.1118 23.7067 88.043 23.8352 88.5407 24.4854C88.5889 24.5496 89.7931 26.1633 91.2381 28.9169C91.6155 29.6394 91.3345 30.5385 90.612 30.9158C90.3952 31.0282 90.1544 31.0844 89.9296 31.0844C89.3837 31.0924 88.8699 30.8034 88.605 30.2977Z" fill="white"/>
</svg>
