<svg width="20" height="20" viewBox="0 0 20 20" fill="none" xmlns="http://www.w3.org/2000/svg">
<rect width="20" height="20" rx="10" fill="#25D12C"/>
<path d="M14.3332 6.24333C14.1082 6.24988 13.8946 6.34375 13.7375 6.50499C13.5421 6.70049 12.2485 8.0301 10.9128 9.40189C9.82836 10.5156 9.06431 11.2991 8.63412 11.7392L6.21096 9.89371H6.21106C6.03027 9.73638 5.79227 9.66094 5.55387 9.68542C5.31546 9.70989 5.09779 9.83196 4.95267 10.0227C4.80753 10.2135 4.74801 10.4559 4.78809 10.6922C4.82818 10.9285 4.96436 11.1377 5.16419 11.27L8.19646 13.5803C8.36325 13.7071 8.57033 13.7693 8.77942 13.7552C8.98842 13.7411 9.18532 13.6517 9.33348 13.5036C9.52888 13.3082 10.8225 11.9829 12.1582 10.611C13.4938 9.23933 14.8715 7.82115 14.9648 7.72781C15.1316 7.56414 15.2252 7.34014 15.2244 7.10655C15.2237 6.87288 15.1286 6.64947 14.9608 6.48693C14.793 6.32446 14.5666 6.23653 14.3331 6.24328L14.3332 6.24333Z" fill="white"/>
</svg>
