<svg width="34" height="34" viewBox="0 0 34 34" fill="none" xmlns="http://www.w3.org/2000/svg">
<path d="M32.617 16.2923C32.0778 16.2923 31.6408 16.7292 31.6408 17.2685C31.6408 25.3414 25.0731 31.9091 17.0002 31.9091C8.92729 31.9091 2.35959 25.3414 2.35959 17.2685C2.35959 9.19553 8.92729 2.62784 17.0002 2.62784C20.0231 2.62784 22.9009 3.54676 25.3313 5.2373H23.6022C23.063 5.2373 22.6261 5.67423 22.6261 6.21345C22.6261 6.75267 23.063 7.1896 23.6022 7.1896L27.9793 7.18927C28.0225 7.19222 28.0633 7.19222 28.1068 7.18927H28.1637C28.7029 7.18927 29.1398 6.75234 29.1398 6.21312V1.65169C29.1398 1.11247 28.7029 0.675537 28.1637 0.675537C27.6244 0.675537 27.1875 1.11247 27.1875 1.65169V4.17456C24.2868 1.90853 20.7391 0.675872 17.0001 0.675872C7.85101 0.675872 0.407715 8.11941 0.407715 17.2683C0.407715 26.4172 7.85126 33.8607 17.0001 33.8607C26.149 33.8607 33.5926 26.4172 33.5926 17.2683C33.5926 16.7291 33.156 16.2921 32.6168 16.2921L32.617 16.2923Z" fill="#25D12C"/>
<path d="M13.4821 4.26937C13.3125 4.32852 13.2229 4.51414 13.2817 4.68375C13.3285 4.81806 13.4543 4.90205 13.5889 4.90205C13.6246 4.90205 13.6608 4.89617 13.6961 4.88408C15.2402 4.34584 16.8449 4.11217 18.4631 4.18734C18.637 4.19453 18.7948 4.05662 18.8033 3.87754C18.8115 3.69813 18.6729 3.54584 18.4935 3.53734C16.7942 3.4576 15.1052 3.70401 13.4821 4.26937L13.4821 4.26937Z" fill="#25D12C"/>
<path d="M28.0247 25.0164C28.0835 25.0612 28.1528 25.0827 28.2214 25.0827C28.3195 25.0827 28.4165 25.0386 28.4806 24.9543C30.0806 22.852 31.0163 20.3513 31.1868 17.7232C31.1983 17.5441 31.0627 17.3892 30.8833 17.3774C30.7029 17.3712 30.5489 17.5016 30.5375 17.681C30.3754 20.1807 29.4849 22.5594 27.9627 24.5602C27.8542 24.7033 27.882 24.9072 28.0248 25.0164L28.0247 25.0164Z" fill="#25D12C"/>
<path d="M26.6194 26.0605C26.2442 26.418 25.8419 26.7559 25.424 27.0654C25.2795 27.1723 25.2488 27.3759 25.356 27.5203C25.4197 27.6066 25.5181 27.652 25.6177 27.652C25.6847 27.652 25.7527 27.6314 25.8109 27.5883C26.2508 27.2628 26.6736 26.9076 27.0681 26.5311C27.1984 26.4072 27.203 26.2013 27.0792 26.0713C26.9553 25.9409 26.7491 25.9366 26.6194 26.0605L26.6194 26.0605Z" fill="#25D12C"/>
<path d="M4.92109 15.5125C4.73808 15.4968 4.58514 15.6321 4.57076 15.8108C4.42337 17.6586 4.6603 19.4906 5.27534 21.2553C5.57371 22.1102 5.95704 22.9344 6.41588 23.7043C6.477 23.8066 6.58484 23.8631 6.69596 23.8631C6.75249 23.8631 6.81001 23.8484 6.86197 23.8174C7.01655 23.7252 7.06687 23.5255 6.97505 23.3713C6.53844 22.6389 6.17341 21.8549 5.88972 21.0412C5.30442 19.3624 5.07893 17.6199 5.21945 15.863C5.23383 15.6839 5.09984 15.5267 4.92109 15.5123V15.5125Z" fill="#25D12C"/>
</svg>
