<svg width="17" height="16" viewBox="0 0 17 16" fill="none" xmlns="http://www.w3.org/2000/svg">
<path d="M14.6355 6.65549C15.297 9.82737 13.5839 12.9993 10.5816 14.2036C7.86762 15.2891 4.81454 14.4579 2.99961 12.2699L4.18691 12.4396C4.56008 12.4904 4.89932 12.2361 4.95017 11.8629L4.95017 11.7611C4.95017 11.4388 4.71271 11.1336 4.3735 11.0827L1.84614 10.7096C1.67647 10.6756 1.48988 10.7265 1.33725 10.8283C1.18462 10.9301 1.09979 11.0998 1.06583 11.2693L0.692669 13.7967C0.641793 14.1698 0.896176 14.5091 1.26934 14.5599C1.64251 14.6108 1.98175 14.3564 2.0326 13.9833L2.13435 13.3217C4.33944 15.7982 7.88445 16.6972 11.0563 15.4251C14.1604 14.1869 16.111 11.2185 16.111 7.99573C16.111 7.45289 16.0601 6.89327 15.9413 6.35042C15.8565 5.97726 15.5003 5.75669 15.1441 5.82463C14.7882 5.94319 14.5507 6.29935 14.6355 6.65549ZM14.1097 1.78742L13.9909 2.56773C11.7858 0.176065 8.2917 -0.672001 5.17071 0.566281C1.54086 2.00811 -0.511537 5.82448 0.285674 9.64091C0.370508 10.0141 0.726653 10.2515 1.08288 10.1667C1.45605 10.0819 1.67661 9.72572 1.60867 9.36949C0.947158 6.19761 2.66028 3.02573 5.66257 1.8384C8.27465 0.803718 11.1922 1.51609 13.0241 3.53459L11.9724 3.38196C11.5993 3.33108 11.26 3.58546 11.2092 3.95863C11.1583 4.3318 11.4127 4.67103 11.7859 4.72189L14.3132 5.09505C14.4829 5.12901 14.6695 5.07813 14.8221 4.97626C14.9747 4.87451 15.0596 4.70484 15.0935 4.53528L15.4667 2.00792L15.4667 1.90617C15.4667 1.56696 15.2292 1.27861 14.89 1.22775C14.4998 1.15984 14.1606 1.41423 14.1097 1.78742Z" fill="#696969"/>
</svg>
