<svg width="14" height="19" viewBox="0 0 14 19" fill="none" xmlns="http://www.w3.org/2000/svg">
<path d="M10.2591 18.7499H3.00371C1.41898 18.7499 0.139743 17.2708 0.139743 15.4385L0.139876 9.87527C0.139876 8.30777 1.07547 7.00531 2.33551 6.65205V3.56144C2.33551 1.72911 3.61475 0.25 5.19947 0.25H8.06344C9.64816 0.25 10.9274 1.72911 10.9274 3.56144C10.9274 3.93672 10.6791 4.22377 10.3546 4.22377C10.03 4.22377 9.78174 3.93673 9.78174 3.56144C9.78174 2.45763 9.01809 1.57466 8.06344 1.57466H5.19947C4.24482 1.57466 3.48117 2.45763 3.48117 3.56144V6.56382H10.2592C11.8439 6.56382 13.1232 8.04293 13.1232 9.87527V15.4385C13.1232 17.2708 11.8439 18.7499 10.2592 18.7499H10.2591ZM11.9775 9.87527C11.9775 8.77145 11.2139 7.88848 10.2592 7.88848H3.00384C2.04919 7.88848 1.28553 8.77145 1.28553 9.87527V15.4385C1.28553 16.5423 2.04919 17.4253 3.00384 17.4253H10.2592C11.2139 17.4253 11.9775 16.5423 11.9775 15.4385V9.87527Z" fill="white"/>
<path d="M6.6314 15.5047C6.30683 15.5047 6.05857 15.2176 6.05857 14.8423V13.5177C6.05857 13.1424 6.30682 12.8553 6.6314 12.8553C6.95597 12.8553 7.20422 13.1424 7.20422 13.5177V14.8423C7.20422 15.1956 6.95597 15.5047 6.6314 15.5047Z" fill="white"/>
</svg>
